<svg width="575" height="64" viewBox="0 0 575 64" fill="none" xmlns="http://www.w3.org/2000/svg">
<path fill-rule="evenodd" clip-rule="evenodd" d="M24.1583 3.97258L48.316 17.9782V45.9957L24.1583 60L0 45.9957V17.9782L24.1583 3.97258Z" fill="#192C66"/>
<path fill-rule="evenodd" clip-rule="evenodd" d="M24.1583 14.8188C25.8803 14.8188 27.2713 16.2341 27.2713 17.9776C27.2713 19.7249 25.8803 21.1402 24.1583 21.1402C22.4395 21.1402 21.0447 19.7249 21.0447 17.9776C21.0447 16.2341 22.4395 14.8188 24.1583 14.8188Z" fill="white"/>
<path fill-rule="evenodd" clip-rule="evenodd" d="M31.0609 14.8188C32.7791 14.8188 34.1738 16.2341 34.1738 17.9776C34.1738 19.7249 32.7791 21.1402 31.0609 21.1402C29.3389 21.1402 27.9442 19.7249 27.9442 17.9776C27.9442 16.2341 29.3389 14.8188 31.0609 14.8188Z" fill="white"/>
<path fill-rule="evenodd" clip-rule="evenodd" d="M17.2549 14.8188C18.9743 14.8188 20.3678 16.2341 20.3678 17.9776C20.3678 19.7249 18.9743 21.1402 17.2549 21.1402C15.5342 21.1402 14.1419 19.7249 14.1419 17.9776C14.1419 16.2341 15.5342 14.8188 17.2549 14.8188Z" fill="white"/>
<path fill-rule="evenodd" clip-rule="evenodd" d="M24.1583 21.8233C25.8803 21.8233 27.2713 23.2386 27.2713 24.9821C27.2713 26.7294 25.8803 28.1447 24.1583 28.1447C22.4395 28.1447 21.0447 26.7294 21.0447 24.9821C21.0447 23.2386 22.4395 21.8233 24.1583 21.8233Z" fill="white"/>
<path fill-rule="evenodd" clip-rule="evenodd" d="M31.0609 21.8233C32.7791 21.8233 34.1738 23.2386 34.1738 24.9821C34.1738 26.7294 32.7791 28.1447 31.0609 28.1447C29.3389 28.1447 27.9442 26.7294 27.9442 24.9821C27.9442 23.2386 29.3389 21.8233 31.0609 21.8233Z" fill="white"/>
<path fill-rule="evenodd" clip-rule="evenodd" d="M10.352 21.8233C12.0715 21.8233 13.4649 23.2386 13.4649 24.9821C13.4649 26.7294 12.0715 28.1447 10.352 28.1447C8.63129 28.1447 7.23904 26.7294 7.23904 24.9821C7.23904 23.2386 8.63129 21.8233 10.352 21.8233Z" fill="white"/>
<path fill-rule="evenodd" clip-rule="evenodd" d="M37.9638 21.8233C39.682 21.8233 41.0767 23.2386 41.0767 24.9821C41.0767 26.7294 39.682 28.1447 37.9638 28.1447C36.2418 28.1447 34.8471 26.7294 34.8471 24.9821C34.8471 23.2386 36.2418 21.8233 37.9638 21.8233Z" fill="white"/>
<path fill-rule="evenodd" clip-rule="evenodd" d="M17.2549 21.8233C18.9743 21.8233 20.3678 23.2386 20.3678 24.9821C20.3678 26.7294 18.9743 28.1447 17.2549 28.1447C15.5342 28.1447 14.1419 26.7294 14.1419 24.9821C14.1419 23.2386 15.5342 21.8233 17.2549 21.8233Z" fill="white"/>
<path fill-rule="evenodd" clip-rule="evenodd" d="M24.1583 28.8238C25.8803 28.8238 27.2713 30.2391 27.2713 31.9864C27.2713 33.7299 25.8803 35.1452 24.1583 35.1452C22.4395 35.1452 21.0447 33.7299 21.0447 31.9864C21.0447 30.2391 22.4395 28.8238 24.1583 28.8238Z" fill="white"/>
<path fill-rule="evenodd" clip-rule="evenodd" d="M31.0609 28.8238C32.7791 28.8238 34.1738 30.2391 34.1738 31.9864C34.1738 33.7299 32.7791 35.1452 31.0609 35.1452C29.3389 35.1452 27.9442 33.7299 27.9442 31.9864C27.9442 30.2391 29.3389 28.8238 31.0609 28.8238Z" fill="white"/>
<path fill-rule="evenodd" clip-rule="evenodd" d="M10.352 28.8238C12.0715 28.8238 13.4649 30.2391 13.4649 31.9864C13.4649 33.7299 12.0715 35.1452 10.352 35.1452C8.63129 35.1452 7.23904 33.7299 7.23904 31.9864C7.23904 30.2391 8.63129 28.8238 10.352 28.8238Z" fill="white"/>
<path fill-rule="evenodd" clip-rule="evenodd" d="M37.9638 28.8238C39.682 28.8238 41.0767 30.2391 41.0767 31.9864C41.0767 33.7299 39.682 35.1452 37.9638 35.1452C36.2418 35.1452 34.8471 33.7299 34.8471 31.9864C34.8471 30.2391 36.2418 28.8238 37.9638 28.8238Z" fill="white"/>
<path fill-rule="evenodd" clip-rule="evenodd" d="M17.2549 28.8238C18.9743 28.8238 20.3678 30.2391 20.3678 31.9864C20.3678 33.7299 18.9743 35.1452 17.2549 35.1452C15.5342 35.1452 14.1419 33.7299 14.1419 31.9864C14.1419 30.2391 15.5342 28.8238 17.2549 28.8238Z" fill="white"/>
<path fill-rule="evenodd" clip-rule="evenodd" d="M24.1583 35.8284C25.8803 35.8284 27.2713 37.2436 27.2713 38.9871C27.2713 40.7338 25.8803 42.1497 24.1583 42.1497C22.4395 42.1497 21.0447 40.7338 21.0447 38.9871C21.0447 37.2436 22.4395 35.8284 24.1583 35.8284Z" fill="white"/>
<path fill-rule="evenodd" clip-rule="evenodd" d="M31.0609 35.8284C32.7791 35.8284 34.1738 37.2436 34.1738 38.9871C34.1738 40.7338 32.7791 42.1497 31.0609 42.1497C29.3389 42.1497 27.9442 40.7338 27.9442 38.9871C27.9442 37.2436 29.3389 35.8284 31.0609 35.8284Z" fill="white"/>
<path fill-rule="evenodd" clip-rule="evenodd" d="M10.352 35.8284C12.0715 35.8284 13.4649 37.2436 13.4649 38.9871C13.4649 40.7338 12.0715 42.1497 10.352 42.1497C8.63129 42.1497 7.23904 40.7338 7.23904 38.9871C7.23904 37.2436 8.63129 35.8284 10.352 35.8284Z" fill="white"/>
<path fill-rule="evenodd" clip-rule="evenodd" d="M37.9638 35.8284C39.682 35.8284 41.0767 37.2436 41.0767 38.9871C41.0767 40.7338 39.682 42.1497 37.9638 42.1497C36.2418 42.1497 34.8471 40.7338 34.8471 38.9871C34.8471 37.2436 36.2418 35.8284 37.9638 35.8284Z" fill="white"/>
<path fill-rule="evenodd" clip-rule="evenodd" d="M17.2549 35.8284C18.9743 35.8284 20.3678 37.2436 20.3678 38.9871C20.3678 40.7338 18.9743 42.1497 17.2549 42.1497C15.5342 42.1497 14.1419 40.7338 14.1419 38.9871C14.1419 37.2436 15.5342 35.8284 17.2549 35.8284Z" fill="white"/>
<path fill-rule="evenodd" clip-rule="evenodd" d="M24.1583 42.8288C25.8803 42.8288 27.2713 44.2441 27.2713 45.9914C27.2713 47.7349 25.8803 49.1508 24.1583 49.1508C22.4395 49.1508 21.0447 47.7349 21.0447 45.9914C21.0447 44.2441 22.4395 42.8288 24.1583 42.8288Z" fill="white"/>
<path fill-rule="evenodd" clip-rule="evenodd" d="M31.0609 42.8288C32.7791 42.8288 34.1738 44.2441 34.1738 45.9914C34.1738 47.7349 32.7791 49.1508 31.0609 49.1508C29.3389 49.1508 27.9442 47.7349 27.9442 45.9914C27.9442 44.2441 29.3389 42.8288 31.0609 42.8288Z" fill="white"/>
<path fill-rule="evenodd" clip-rule="evenodd" d="M17.2549 42.8288C18.9743 42.8288 20.3678 44.2441 20.3678 45.9914C20.3678 47.7349 18.9743 49.1508 17.2549 49.1508C15.5342 49.1508 14.1419 47.7349 14.1419 45.9914C14.1419 44.2441 15.5342 42.8288 17.2549 42.8288Z" fill="white"/>
<path d="M60.7805 35.1126H63.216V45.9524H60.7805V35.1126Z" fill="#4F4C4D"/>
<path d="M73.0454 40.5701V40.4489C73.0454 38.3418 71.94 36.9019 70.0725 36.9019C68.2199 36.9019 67.0989 38.2818 67.0989 40.4641V40.5853C67.0989 42.7984 68.3542 44.1632 70.1023 44.1632C71.9101 44.1632 73.0454 42.7536 73.0454 40.5701ZM64.5744 40.6004V40.4792C64.5744 37.2504 66.9048 34.9614 70.0725 34.9614C73.2849 34.9614 75.5711 37.1595 75.5711 40.4186V40.5398C75.5711 43.7687 73.3895 46.1195 70.0575 46.1195C66.7107 46.1195 64.5744 43.7687 64.5744 40.6004" fill="#4F4C4D"/>
<path d="M76.3144 40.6003V40.4797C76.3144 37.1896 78.585 34.9455 81.6184 34.9455C84.1882 34.9455 86.1006 36.2194 86.355 38.8871H83.8741C83.6949 37.5835 82.9783 36.8866 81.6333 36.8866C79.9449 36.8866 78.8687 38.2205 78.8687 40.464V40.5858C78.8687 42.8293 79.8852 44.1334 81.6482 44.1334C82.9783 44.1334 83.9039 43.451 84.0987 42.056H86.4738C86.2051 44.7394 84.3077 46.1193 81.6781 46.1193C78.1819 46.1193 76.3144 43.9358 76.3144 40.6003Z" fill="#4F4C4D"/>
<path d="M91.6103 44.2547C92.806 44.2547 93.3435 43.7087 93.3435 42.7233V42.6627C93.3435 41.6621 92.806 41.1464 91.4915 41.1464H89.9525V44.2547H91.6103ZM91.4013 39.5695C92.5665 39.5695 93.0299 39.1447 93.0299 38.1751V38.1145C93.0299 37.2049 92.5223 36.7952 91.387 36.7952H89.9525V39.5695H91.4013ZM87.5916 35.1123H91.7901C94.1205 35.1123 95.3304 36.0825 95.3304 37.9327V37.9933C95.3304 39.1302 94.793 39.9634 93.5973 40.3125C94.9877 40.6004 95.7342 41.404 95.7342 42.8596V42.9202C95.7342 44.9061 94.4489 45.9521 91.9842 45.9521H87.5916V35.1123Z" fill="#4F4C4D"/>
<path d="M104.488 40.2977C105.668 40.2977 106.296 39.7213 106.296 38.6451V38.5838C106.296 37.4318 105.639 36.9773 104.488 36.9773H103.263V40.2977H104.488ZM100.858 35.1126H104.548C107.148 35.1126 108.627 36.2798 108.627 38.5693V38.6293C108.627 40.9188 107.058 42.0109 104.623 42.0109H103.263V45.9524H100.858V35.1126Z" fill="#4F4C4D"/>
<path d="M113.266 40.1004C114.476 40.1004 115.09 39.5853 115.09 38.5393V38.4781C115.09 37.3715 114.432 36.9928 113.266 36.9928H111.906V40.1004H113.266ZM109.501 35.1123H113.327C115.851 35.1123 117.451 36.1582 117.451 38.4023V38.4636C117.451 40.1004 116.509 40.9646 115.253 41.344L118.078 45.9527H115.508L112.953 41.7682H111.906V45.9527H109.501V35.1123Z" fill="#4F4C4D"/>
<path d="M122.009 41.7981H124.833L123.428 37.1142L122.009 41.7981ZM121.994 35.1125H125.146L128.613 45.9524H126.088L125.356 43.5423H121.486L120.754 45.9524H118.482L121.994 35.1125Z" fill="#4F4C4D"/>
<path d="M128.553 40.6003V40.4797C128.553 37.2199 130.839 34.9455 133.991 34.9455C136.367 34.9455 138.489 36.0521 138.743 38.7356H136.337C136.128 37.463 135.306 36.8866 134.021 36.8866C132.169 36.8866 131.078 38.2962 131.078 40.5094V40.6312C131.078 42.7232 131.96 44.2237 134.051 44.2237C135.844 44.2237 136.576 43.1777 136.621 41.9348H134.216V40.1458H139.012V41.2978C139.012 44.1934 137.189 46.1193 133.991 46.1193C130.495 46.1193 128.553 43.8146 128.553 40.6003Z" fill="#4F4C4D"/>
<path d="M140.18 41.7223V35.1125H142.615V41.5708C142.615 43.3749 143.138 44.1633 144.602 44.1633C146.037 44.1633 146.664 43.4664 146.664 41.4799V35.1125H149.1V41.6314C149.1 44.5882 147.471 46.1196 144.587 46.1196C141.779 46.1196 140.18 44.6027 140.18 41.7223Z" fill="#4F4C4D"/>
<path d="M150.798 35.1123H157.76V37.0225H153.203V39.5544H156.85V41.344H153.203V44.042H158V45.9522H150.798V35.1123Z" fill="#4F4C4D"/>
<path d="M65.1162 15.0793H67.4621L65.9529 17.187H64.3249L65.1162 15.0793ZM60.8132 24.5247V17.9142H63.2487V24.3732C63.2487 26.1773 63.7718 26.9658 65.2356 26.9658C66.6702 26.9658 67.2979 26.2689 67.2979 24.2823V17.9142H69.7334V24.4338C69.7334 27.3906 68.1047 28.922 65.2207 28.922C62.412 28.922 60.8132 27.4051 60.8132 24.5247" fill="#4F4C4D"/>
<path d="M79.3009 23.3725V23.2513C79.3009 21.1442 78.1955 19.7036 76.328 19.7036C74.4754 19.7036 73.3544 21.0836 73.3544 23.2664V23.3876C73.3544 25.6014 74.6098 26.9656 76.3578 26.9656C78.1656 26.9656 79.3009 25.556 79.3009 23.3725ZM70.8299 23.4028V23.2816C70.8299 20.0521 73.1603 17.7632 76.328 17.7632C79.5405 17.7632 81.8266 19.9618 81.8266 23.221V23.3422C81.8266 26.5717 79.645 28.9218 76.313 28.9218C72.9662 28.9218 70.8299 26.5717 70.8299 23.4028" fill="#4F4C4D"/>
<path d="M82.5165 23.4027V23.2822C82.5165 19.9921 84.7872 17.748 87.8205 17.748C90.3903 17.748 92.3027 19.0218 92.5571 21.6895H90.0762C89.897 20.386 89.1804 19.6884 87.8354 19.6884C86.147 19.6884 85.0708 21.0223 85.0708 23.2664V23.3882C85.0708 25.6317 86.0873 26.9358 87.8503 26.9358C89.1804 26.9358 90.106 26.2535 90.3008 24.8584H92.6765C92.4072 27.5425 90.5098 28.9218 87.8802 28.9218C84.384 28.9218 82.5165 26.7383 82.5165 23.4027Z" fill="#4F4C4D"/>
<path d="M93.801 17.9144H96.2216V22.342H100.509V17.9144H102.93V28.7549H100.509V24.2825H96.2216V28.7549H93.801V17.9144Z" fill="#4F4C4D"/>
<path d="M108.722 27.0565C109.918 27.0565 110.455 26.5111 110.455 25.5257V25.4651C110.455 24.4645 109.918 23.9488 108.603 23.9488H107.064V27.0565H108.722ZM108.513 22.3719C109.678 22.3719 110.142 21.9471 110.142 20.9769V20.9163C110.142 20.0066 109.634 19.5976 108.499 19.5976H107.064V22.3719H108.513ZM104.703 17.9147H108.902C111.232 17.9147 112.442 18.8849 112.442 20.7345V20.7951C112.442 21.9326 111.905 22.7658 110.709 23.1149C112.099 23.4028 112.846 24.2064 112.846 25.662V25.7226C112.846 27.7086 111.561 28.7545 109.096 28.7545H104.703V17.9147Z" fill="#4F4C4D"/>
<path d="M118.502 20.1953H119.474L118.991 18.5811L118.502 20.1953ZM118.497 17.8924H119.582L120.776 21.6257H119.907L119.655 20.7943H118.322L118.07 21.6257H117.288L118.497 17.8924Z" fill="#4F4C4D"/>
<path d="M120.594 17.8922H121.474L122.348 20.7587L123.223 17.8922H124.005L122.781 21.6254H121.824L120.594 17.8922Z" fill="#4F4C4D"/>
<path d="M118.132 24.0235H118.667L119.022 24.2956L119.372 24.0235H119.897L119.32 24.7488H118.688L118.132 24.0235ZM117.196 26.89V26.8483C117.196 25.7152 117.978 24.9426 119.022 24.9426C119.907 24.9426 120.566 25.3807 120.653 26.2998H119.799C119.737 25.851 119.491 25.6111 119.027 25.6111C118.446 25.6111 118.075 26.07 118.075 26.8427V26.8843C118.075 27.657 118.426 28.1064 119.032 28.1064C119.491 28.1064 119.809 27.8716 119.876 27.3912H120.694C120.602 28.3147 119.948 28.7901 119.043 28.7901C117.838 28.7901 117.196 28.0383 117.196 26.89Z" fill="#4F4C4D"/>
<path d="M122.528 26.7174C122.945 26.7174 123.156 26.54 123.156 26.1796V26.1588C123.156 25.7781 122.93 25.6475 122.528 25.6475H122.061V26.7174H122.528ZM121.232 24.9998H122.549C123.419 24.9998 123.969 25.3602 123.969 26.1329V26.1531C123.969 26.7174 123.645 27.0154 123.213 27.146L124.185 28.7324H123.3L122.42 27.2919H122.061V28.7324H121.232V24.9998Z" fill="#4F4C4D"/>
<path fill-rule="evenodd" clip-rule="evenodd" d="M123.874 23.4754H117.219V22.9319H123.874V23.4754Z" fill="#4F4C4D"/>
<g clip-path="url(#clip0)">
<path d="M258.248 1.90735e-06C256.02 1.90735e-06 254.213 1.7848 254.213 3.98665C254.213 4.6759 254.391 5.32428 254.702 5.8898C254.3 6.08748 253.365 6.55125 252.055 7.22344C251.567 6.23586 250.544 5.55421 249.357 5.55421C247.698 5.55421 246.353 6.88285 246.353 8.52205C246.353 9.06941 246.506 9.58099 246.768 10.0212C246.094 10.3883 245.394 10.7739 244.677 11.1746C244.255 10.5407 243.53 10.1215 242.705 10.1215C241.401 10.1215 240.345 11.1652 240.345 12.4529C240.345 12.8341 240.439 13.1929 240.604 13.5107C239.861 13.9485 239.113 14.3966 238.364 14.8532C238.064 14.6023 237.677 14.4502 237.252 14.4502C236.3 14.4502 235.529 15.2127 235.529 16.1528C235.529 16.3042 235.551 16.45 235.588 16.5894C232.571 18.5262 229.684 20.5558 227.347 22.5273C224.621 16.5051 220.601 9.89415 215.006 4.51158C215.001 4.50611 214.996 4.50102 214.99 4.49564C214.336 3.85848 213.793 4.13939 214.546 4.93327C214.555 4.94346 214.565 4.95356 214.574 4.96404C219.323 10.0121 223.053 17.3181 225.596 23.9801C215.952 32.1163 205.32 47.8814 216.973 52.8353C218.669 53.5565 219.443 52.1775 218.712 51.7529C218.581 51.6765 213.392 48.9052 216.691 40.3903H224.995C225.439 40.3903 225.8 40.0338 225.8 39.5947C225.8 39.1551 225.439 38.7989 224.995 38.7989H217.379C217.825 37.8572 218.368 36.8541 219.022 35.7858H224.994C225.439 35.7858 225.8 35.4295 225.8 34.99C225.8 34.5509 225.439 34.1943 224.994 34.1943H220.049C220.665 33.2831 221.357 32.3292 222.135 31.33H224.994C225.439 31.33 225.8 30.9734 225.8 30.5343C225.8 30.0948 225.439 29.7385 224.994 29.7385H223.413C224.315 28.6495 225.31 27.512 226.412 26.3221C226.421 26.3116 226.431 26.3015 226.44 26.291C228.63 32.5565 229.688 37.8989 229.456 39.6811C229.329 40.6506 228.696 41.0561 228.441 41.1756C228.033 41.3664 227.866 41.9228 228.506 42.1088C230.546 42.7034 231.802 40.7021 232.028 39.0962C232.256 37.476 231.14 31.5461 228.194 24.4762C230.656 22.0567 233.496 19.7452 236.392 17.627C236.645 17.7718 236.939 17.8558 237.252 17.8558C238.204 17.8558 238.976 17.0934 238.976 16.1528C238.976 16.0384 238.964 15.9266 238.942 15.8183C239.711 15.2887 240.478 14.7731 241.236 14.2757C241.639 14.5932 242.149 14.7843 242.705 14.7843C244.008 14.7843 245.064 13.7407 245.064 12.4529C245.064 12.2592 245.038 12.0725 244.993 11.8925C245.748 11.4291 246.482 10.9878 247.187 10.5708C247.734 11.1362 248.503 11.49 249.357 11.49C251.016 11.49 252.361 10.1613 252.361 8.52205C252.361 8.23354 252.317 7.95514 252.239 7.69119C253.522 6.986 254.457 6.48748 254.913 6.23011C255.64 7.28211 256.862 7.97284 258.248 7.97284C260.476 7.97284 262.283 6.18841 262.283 3.98665C262.283 1.7848 260.476 1.90735e-06 258.248 1.90735e-06Z" fill="#F36814"/>
<path d="M212.34 31.9074C212.49 31.5849 212.616 31.2377 212.767 30.8148C212.917 30.418 213.068 29.9216 213.194 29.3504L214.728 22.7956C214.853 22.1248 214.952 21.6284 214.979 21.3312C215.028 21.1078 215.028 20.8591 215.028 20.5366C215.028 20.4374 215.028 20.3378 215.028 20.2386H218.497L216.41 29.3504C216.259 29.9963 216.16 30.4923 216.109 30.8398C216.033 31.2123 216.033 31.5595 216.033 31.9074H212.34" fill="#453D3A"/>
<path d="M202.886 22.7956C202.961 22.5723 202.987 22.3482 202.987 22.1997C202.987 22.1013 202.961 22.0263 202.937 21.9513C202.835 21.8029 202.586 21.7287 202.233 21.7287H196.905C196.554 21.7287 196.302 21.8029 196.151 21.9513C195.975 22.1013 195.851 22.3742 195.8 22.7956L195.171 25.4764H202.258L202.886 22.7956ZM203.69 31.9074H193.413C192.382 31.9074 191.679 31.684 191.301 31.2123C191.101 30.9397 191 30.5675 191 30.0951C191 29.7476 191.05 29.3258 191.176 28.828L192.458 23.3169C192.733 22.1997 193.135 21.4054 193.689 20.9326C194.266 20.4616 195.046 20.2386 196.102 20.2386H203.69C204.771 20.2386 205.474 20.4616 205.826 20.9326C206.052 21.2066 206.154 21.5796 206.154 22.0759C206.154 22.4492 206.103 22.8452 205.977 23.3169L205.148 26.9675H194.819L194.266 29.3504C194.216 29.5973 194.191 29.7979 194.191 29.9216C194.191 30.0455 194.191 30.1451 194.242 30.1936C194.316 30.3434 194.543 30.418 194.896 30.418H202.433C203.163 30.418 203.841 30.3434 204.394 30.2203L203.69 31.9074" fill="#453D3A"/>
<path d="M206.252 31.9074C206.412 31.5465 206.545 31.1566 206.706 30.683C206.866 30.237 207.026 29.681 207.158 29.0398L209.798 16.9609C209.958 16.209 210.064 15.6518 210.117 15.3183C210.144 15.0118 210.171 14.5947 210.171 14.0932H213.85L210.571 29.0398C210.412 29.7638 210.304 30.3214 210.251 30.7109C210.171 31.1279 210.171 31.5182 210.171 31.9074H206.252Z" fill="#453D3A"/>
<path d="M232.391 31.9074C232.541 31.5849 232.666 31.2377 232.817 30.8148C232.968 30.418 233.119 29.9216 233.244 29.3504L234.778 22.7956C234.904 22.1248 235.003 21.6284 235.028 21.3312C235.079 21.1078 235.079 20.8591 235.079 20.5366C235.079 20.4374 235.079 20.3378 235.079 20.2386H238.546L236.461 29.3504C236.311 29.9963 236.21 30.4923 236.16 30.8398C236.084 31.2123 236.084 31.5595 236.084 31.9074H232.391" fill="#453D3A"/>
<path d="M248.651 22.1997C248.273 22.1748 247.898 22.1501 247.47 22.1501H245.786C245.462 22.1501 245.185 22.2243 245.034 22.3482C244.832 22.498 244.706 22.7457 244.606 23.1181L243.199 29.3504C242.948 30.3185 242.848 31.0635 242.848 31.6344C242.848 31.7343 242.848 31.8325 242.848 31.9074H239.179C239.328 31.5349 239.479 31.1862 239.58 30.8398C239.681 30.5176 239.807 30.0202 239.983 29.3504L241.489 22.7956C241.665 22.1501 241.741 21.6538 241.817 21.2812C241.868 20.9326 241.868 20.5865 241.868 20.2386H244.958L244.832 21.4297C245.034 21.0336 245.285 20.7357 245.612 20.5366C245.938 20.3378 246.365 20.2386 246.943 20.2386H249.959L250.687 21.5285C250.536 21.6538 250.411 21.8029 250.259 22.001C250.084 22.2243 249.959 22.3235 249.884 22.3235C249.431 22.2747 249.028 22.2243 248.651 22.1997" fill="#453D3A"/>
<path d="M219.078 16.1575C219.078 17.0851 218.317 17.8377 217.378 17.8377C216.438 17.8377 215.676 17.0851 215.676 16.1575C215.676 15.2293 216.438 14.4763 217.378 14.4763C218.317 14.4763 219.078 15.2293 219.078 16.1575Z" fill="#453D3A"/>
<path d="M226.219 47.6294C225.265 47.6294 224.652 48.1536 224.391 49.2034L223.752 51.7492C223.698 51.9708 223.672 52.1663 223.672 52.3444C223.672 52.9945 224.04 53.3233 224.778 53.3233H228.444L228.678 52.3806H226.219C225.976 52.3806 225.86 52.2995 225.86 52.1489C225.86 52.1127 225.869 52.0692 225.877 52.0244L226.66 48.9284C226.723 48.688 226.895 48.5721 227.183 48.5721H229.641L229.885 47.6294H226.219Z" fill="#3D3A3D"/>
<path d="M231.181 47.6294L230.937 48.5721H233.504L229.344 53.3233H235.053L235.288 52.3806H232.684L236.863 47.6294H231.181Z" fill="#3D3A3D"/>
<path d="M237.899 47.6294L236.458 53.3233H241.447L241.68 52.3806H238.89L239.277 50.85H241.834L242.078 49.9072H239.52L239.853 48.5721H242.645L242.888 47.6294H237.899Z" fill="#3D3A3D"/>
<path d="M245.445 47.6294C244.491 47.6294 243.878 48.1536 243.617 49.2034L242.978 51.7492C242.924 51.9708 242.897 52.1663 242.897 52.3444C242.897 52.9945 243.265 53.3233 244.004 53.3233H247.67L247.904 52.3806H245.445C245.201 52.3806 245.086 52.2995 245.086 52.1489C245.086 52.1127 245.094 52.0692 245.103 52.0244L245.886 48.9284C245.949 48.688 246.12 48.5721 246.409 48.5721H248.867L249.11 47.6294H245.445Z" fill="#3D3A3D"/>
<path d="M254.162 47.6294L253.585 49.9072H251.947L252.523 47.6294H250.326L248.885 53.3233H251.082L251.704 50.85H253.342L252.721 53.3233H254.918L256.359 47.6294H254.162Z" fill="#3D3A3D"/>
<path d="M230.632 59.0795C230.632 58.564 230.245 58.3062 229.461 58.3062H224.887L223.446 64.0001H225.643L226.264 61.5268H226.94L227.364 64.0001H229.767L229.183 61.5268C229.767 61.5268 230.137 61.2415 230.28 60.6637L230.56 59.569C230.604 59.3821 230.632 59.2229 230.632 59.0795V59.0795ZM228.192 60.264C228.138 60.4769 228.003 60.5841 227.786 60.5841H226.508L226.84 59.2489H228.12C228.3 59.2489 228.39 59.3025 228.39 59.4184C228.39 59.4632 228.381 59.5067 228.363 59.569L228.192 60.264Z" fill="#3D3A3D"/>
<path d="M232.145 58.3062L230.704 64.0001H235.693L235.926 63.0575H233.136L233.522 61.5268H236.08L236.323 60.5841H233.766L234.098 59.2489H236.891L237.134 58.3062H232.145Z" fill="#3D3A3D"/>
<path d="M244.023 59.1418C244.023 58.5814 243.643 58.3062 242.878 58.3062H238.358L236.917 64.0001H239.114L239.627 61.9714H242.014C242.915 61.9714 243.473 61.5355 243.698 60.6637L243.95 59.6674C243.995 59.4632 244.023 59.2938 244.023 59.1418ZM241.528 60.5841C241.455 60.8766 241.294 61.0286 241.051 61.0286H239.862L240.312 59.2489H241.501C241.69 59.2489 241.781 59.3198 241.781 59.4719C241.781 59.5342 241.772 59.6138 241.744 59.721L241.528 60.5841Z" fill="#3D3A3D"/>
<path d="M250.732 58.3062L249.641 62.5941C249.596 62.7808 249.524 62.9054 249.443 62.9677C249.354 63.0299 249.209 63.0575 249.011 63.0575H247.066C246.796 63.0575 246.661 62.9502 246.661 62.7374C246.661 62.6752 246.67 62.6129 246.688 62.5404L247.759 58.3062H245.562L244.545 62.3102C244.482 62.5506 244.454 62.7635 244.454 62.9502C244.454 63.6525 244.841 64.0001 245.625 64.0001H248.741C249.291 64.0001 249.704 63.8669 250.002 63.6092C250.29 63.3499 250.515 62.9242 250.668 62.3102L251.686 58.3062H250.732Z" fill="#3D3A3D"/>
<path d="M258.836 59.0708C258.836 58.564 258.422 58.3062 257.585 58.3062H253.037L251.596 64.0001H256.144C257.143 64.0001 257.728 63.6265 257.917 62.8706L258.169 61.8468C258.187 61.7672 258.196 61.6875 258.196 61.6253C258.196 61.4385 258.098 61.2951 257.909 61.2155C257.774 61.1619 257.513 61.1082 257.124 61.0547V61.0373C257.557 61.0112 257.872 60.949 258.061 60.8505C258.332 60.7173 258.512 60.4943 258.593 60.1742L258.782 59.4357C258.817 59.3025 258.836 59.1779 258.836 59.0708V59.0708ZM256.377 60.264C256.324 60.4769 256.188 60.5841 255.981 60.5841H254.658L254.99 59.2489H256.314C256.485 59.2489 256.576 59.3025 256.576 59.4184C256.576 59.4531 256.566 59.498 256.557 59.5515L256.377 60.264ZM255.747 62.7461C255.692 62.9502 255.558 63.0575 255.351 63.0575H254.027L254.414 61.5268H255.738C255.909 61.5268 255.999 61.5804 255.999 61.6962C255.999 61.731 255.99 61.7758 255.981 61.8381L255.747 62.7461Z" fill="#3D3A3D"/>
<path d="M261.321 63.0575L262.528 58.3062H260.331L258.89 64.0001H263.879L264.112 63.0575H261.321Z" fill="#3D3A3D"/>
<path d="M266.454 58.3062L265.013 64.0001H267.211L268.651 58.3062H266.454Z" fill="#3D3A3D"/>
<path d="M271.334 58.3062C270.38 58.3062 269.767 58.8304 269.507 59.8803L268.867 62.426C268.813 62.6476 268.787 62.8431 268.787 63.0212C268.787 63.6714 269.155 64.0001 269.893 64.0001H273.559L273.794 63.0575H271.334C271.091 63.0575 270.975 62.9764 270.975 62.8258C270.975 62.7895 270.984 62.7461 270.993 62.7012L271.775 59.6052C271.838 59.3648 272.01 59.2489 272.299 59.2489H274.757L275 58.3062H271.334Z" fill="#3D3A3D"/>
</g>
<g clip-path="url(#clip1)">
<path d="M388.188 -1.33514e-05C385.531 -1.33514e-05 383.377 2.15357 383.377 4.81039C383.377 5.64205 383.588 6.4244 383.96 7.10678C383.481 7.34531 382.366 7.9049 380.804 8.71599C380.222 7.52434 379.002 6.70185 377.586 6.70185C375.608 6.70185 374.004 8.30502 374.004 10.2829C374.004 10.9434 374.186 11.5607 374.499 12.0919C373.695 12.5348 372.861 13 372.006 13.4836C371.503 12.7187 370.638 12.2129 369.654 12.2129C368.1 12.2129 366.84 13.4723 366.84 15.026C366.84 15.486 366.952 15.919 367.149 16.3024C366.263 16.8306 365.371 17.3714 364.479 17.9222C364.12 17.6195 363.658 17.436 363.152 17.436C362.017 17.436 361.097 18.356 361.097 19.4904C361.097 19.673 361.123 19.849 361.168 20.0172C357.57 22.3542 354.128 24.8031 351.341 27.1821C348.09 19.9155 343.297 11.9385 336.625 5.44378C336.619 5.43718 336.613 5.43103 336.607 5.42455C335.826 4.65573 335.179 4.99468 336.077 5.9526C336.088 5.9649 336.099 5.97709 336.111 5.98973C341.773 12.0809 346.221 20.8965 349.253 28.9351C337.753 38.7524 325.076 57.775 338.971 63.7526C340.994 64.6227 341.916 62.9588 341.045 62.4464C340.889 62.3543 334.7 59.0104 338.634 48.736H348.536C349.066 48.736 349.496 48.3058 349.496 47.776C349.496 47.2456 349.066 46.8158 348.536 46.8158H339.455C339.986 45.6796 340.634 44.4691 341.415 43.1801H348.536C349.066 43.1801 349.496 42.7502 349.496 42.2199C349.496 41.6901 349.066 41.2598 348.536 41.2598H342.639C343.374 40.1603 344.199 39.0092 345.126 37.8036H348.536C349.066 37.8036 349.496 37.3733 349.496 36.8435C349.496 36.3132 349.066 35.8833 348.536 35.8833H346.65C347.725 34.5693 348.912 33.1967 350.226 31.761C350.237 31.7482 350.249 31.736 350.26 31.7234C352.871 39.2835 354.132 45.7299 353.855 47.8803C353.705 49.0502 352.95 49.5394 352.646 49.6836C352.16 49.9138 351.96 50.5852 352.723 50.8097C355.156 51.5271 356.654 49.1122 356.923 47.1745C357.194 45.2196 355.864 38.0644 352.351 29.5336C355.286 26.6142 358.674 23.8251 362.127 21.2691C362.429 21.4439 362.778 21.5452 363.152 21.5452C364.287 21.5452 365.207 20.6253 365.207 19.4904C365.207 19.3524 365.193 19.2174 365.167 19.0868C366.085 18.4477 366.999 17.8256 367.902 17.2254C368.383 17.6086 368.991 17.8392 369.654 17.8392C371.208 17.8392 372.468 16.5799 372.468 15.026C372.468 14.7923 372.436 14.5669 372.383 14.3498C373.283 13.7906 374.158 13.2582 374.998 12.755C375.651 13.4373 376.568 13.8641 377.586 13.8641C379.564 13.8641 381.168 12.2609 381.168 10.2829C381.168 9.9348 381.116 9.59887 381.023 9.28038C382.553 8.42948 383.668 7.82796 384.212 7.51741C385.078 8.78677 386.536 9.62023 388.188 9.62023C390.845 9.62023 393 7.46709 393 4.81039C393 2.15357 390.845 -1.33514e-05 388.188 -1.33514e-05Z" fill="#F36814"/>
<path d="M333.446 38.5003C333.625 38.1111 333.775 37.6922 333.956 37.1819C334.135 36.7032 334.315 36.1043 334.464 35.4149L336.293 27.5058C336.443 26.6964 336.561 26.0974 336.594 25.7388C336.652 25.4693 336.652 25.1691 336.652 24.78C336.652 24.6603 336.652 24.5401 336.652 24.4205H340.788L338.3 35.4149C338.12 36.1943 338.002 36.7928 337.941 37.2121C337.85 37.6616 337.85 38.0805 337.85 38.5003H333.446" fill="#453D3A"/>
<path d="M322.174 27.5058C322.263 27.2363 322.294 26.9659 322.294 26.7867C322.294 26.668 322.263 26.5775 322.234 26.487C322.113 26.308 321.815 26.2184 321.395 26.2184H315.041C314.623 26.2184 314.322 26.308 314.142 26.487C313.933 26.668 313.784 26.9973 313.723 27.5058L312.974 30.7405H321.424L322.174 27.5058ZM323.132 38.5003H310.877C309.648 38.5003 308.81 38.2308 308.359 37.6616C308.121 37.3327 308 36.8836 308 36.3136C308 35.8942 308.06 35.3853 308.21 34.7847L309.739 28.1348C310.067 26.7867 310.546 25.8284 311.206 25.2578C311.894 24.6895 312.825 24.4205 314.083 24.4205H323.132C324.421 24.4205 325.26 24.6895 325.679 25.2578C325.948 25.5885 326.07 26.0385 326.07 26.6373C326.07 27.0878 326.009 27.5656 325.859 28.1348L324.87 32.5397H312.554L311.894 35.4149C311.835 35.7129 311.806 35.955 311.806 36.1043C311.806 36.2537 311.806 36.3739 311.866 36.4324C311.955 36.6132 312.225 36.7032 312.645 36.7032H321.633C322.503 36.7032 323.312 36.6132 323.972 36.4647L323.132 38.5003" fill="#453D3A"/>
<path d="M326.187 38.5003C326.377 38.0648 326.537 37.5944 326.728 37.0229C326.919 36.4848 327.11 35.8138 327.268 35.0402L330.415 20.4654C330.606 19.5582 330.733 18.8859 330.796 18.4835C330.828 18.1136 330.86 17.6104 330.86 17.0052H335.247L331.337 35.0402C331.147 35.9138 331.019 36.5866 330.955 37.0566C330.86 37.5598 330.86 38.0307 330.86 38.5003H326.187Z" fill="#453D3A"/>
<path d="M357.356 38.5003C357.534 38.1111 357.684 37.6922 357.864 37.1819C358.044 36.7032 358.224 36.1043 358.373 35.4149L360.202 27.5058C360.352 26.6964 360.471 26.0974 360.5 25.7388C360.561 25.4693 360.561 25.1691 360.561 24.78C360.561 24.6603 360.561 24.5401 360.561 24.4205H364.695L362.209 35.4149C362.029 36.1943 361.909 36.7928 361.85 37.2121C361.759 37.6616 361.759 38.0805 361.759 38.5003H357.356" fill="#453D3A"/>
<path d="M376.745 26.7867C376.294 26.7567 375.846 26.7269 375.337 26.7269H373.329C372.941 26.7269 372.611 26.8165 372.431 26.9659C372.191 27.1467 372.041 27.4455 371.922 27.895L370.243 35.4149C369.944 36.5831 369.824 37.4821 369.824 38.1709C369.824 38.2915 369.824 38.4099 369.824 38.5003H365.449C365.628 38.0508 365.808 37.6301 365.928 37.2121C366.048 36.8233 366.198 36.2231 366.408 35.4149L368.205 27.5058C368.415 26.7269 368.505 26.1281 368.596 25.6785C368.656 25.2578 368.656 24.8403 368.656 24.4205H372.341L372.191 25.8577C372.431 25.3797 372.73 25.0202 373.12 24.78C373.509 24.5401 374.019 24.4205 374.707 24.4205H378.304L379.172 25.9769C378.993 26.1281 378.843 26.308 378.663 26.547C378.454 26.8165 378.304 26.9361 378.214 26.9361C377.675 26.8772 377.194 26.8165 376.745 26.7867" fill="#453D3A"/>
<path d="M341.481 19.4961C341.481 20.6153 340.574 21.5234 339.453 21.5234C338.333 21.5234 337.424 20.6153 337.424 19.4961C337.424 18.376 338.333 17.4674 339.453 17.4674C340.574 17.4674 341.481 18.376 341.481 19.4961Z" fill="#453D3A"/>
</g>
<g clip-path="url(#clip2)">
<path d="M426 55L441.294 32L426 9H437.471L452.765 32L437.471 55" fill="#666666"/>
<path d="M478.255 41.5833L473.157 33.9167H491V41.5833" fill="#666666"/>
<path d="M470.608 30.0833L465.51 22.4167H491V30.0833" fill="#666666"/>
<path d="M441.294 55L456.588 32L441.294 9H452.765L483.353 55H471.882L462.324 40.625L452.765 55" fill="#999999"/>
</g>
<path d="M570.508 9H533.492C531.011 9 529 11.0112 529 13.4922V50.5078C529 52.9888 531.011 55 533.492 55H570.508C572.989 55 575 52.9888 575 50.5078V13.4922C575 11.0112 572.989 9 570.508 9Z" fill="#3178C6"/>
<path fill-rule="evenodd" clip-rule="evenodd" d="M557.48 45.5664V50.0586C558.208 50.4359 559.098 50.7145 560.086 50.9031C561.074 51.0918 562.152 51.1816 563.23 51.1816C564.309 51.1816 565.297 51.0828 566.285 50.8762C567.273 50.6695 568.082 50.3281 568.801 49.8879C569.529 49.4117 570.148 48.8098 570.508 48.0012C570.867 47.1926 571.146 46.2941 571.146 45.1262C571.146 44.3086 571.02 43.5988 570.777 42.9699C570.535 42.341 570.184 41.802 569.699 41.3527C569.241 40.8766 568.711 40.4543 568.082 40.0949C567.453 39.7356 566.734 39.3582 565.926 39.0168C565.333 38.7742 564.848 38.5406 564.309 38.307C563.841 38.0734 563.437 37.8398 563.141 37.6063C562.808 37.3637 562.557 37.1121 562.377 36.8516C562.197 36.582 562.107 36.2856 562.107 35.9531C562.107 35.6477 562.187 35.3691 562.35 35.1176C562.513 34.866 562.736 34.6594 563.024 34.4797C563.311 34.3 563.671 34.1652 564.102 34.0664C564.524 33.9676 564.991 33.9227 565.539 33.9227C565.917 33.9227 566.312 33.9505 566.707 34.0071C567.121 34.0637 567.543 34.1509 567.965 34.2677C568.387 34.3845 568.801 34.5282 569.223 34.7079C569.618 34.8876 569.987 35.0942 570.301 35.3278V31.1052C569.618 30.8446 568.864 30.647 568.055 30.5212C567.246 30.3954 566.348 30.3325 565.27 30.3325C564.192 30.3325 563.204 30.4493 562.215 30.6739C561.227 30.8985 560.418 31.2579 559.7 31.752C558.972 32.2372 558.442 32.8302 557.993 33.6388C557.57 34.3934 557.364 35.2559 557.364 36.3341C557.364 37.6817 557.75 38.8497 558.532 39.7481C559.304 40.7364 560.508 41.4552 562.036 42.1739C562.655 42.4255 563.204 42.677 563.743 42.9196C564.282 43.1622 564.731 43.4138 565.09 43.6743C565.477 43.9348 565.782 44.2223 565.989 44.5278C566.213 44.8333 566.33 45.1927 566.33 45.6059C566.33 45.8934 566.26 46.163 566.123 46.4145C565.987 46.6661 565.773 46.8817 565.486 47.0614C565.198 47.2411 564.848 47.3848 564.407 47.4927C563.985 47.5915 563.509 47.6454 562.88 47.6454C561.892 47.6454 560.904 47.4747 560.005 47.1333C559.017 46.7919 558.118 46.2798 557.31 45.6059L557.48 45.5664ZM549.934 34.5156H555.684V30.832H539.602V34.5156H545.352V50.957H549.934V34.5156Z" fill="white"/>
<defs>
<clipPath id="clip0">
<rect width="84" height="64" fill="white" transform="translate(191)"/>
</clipPath>
<clipPath id="clip1">
<rect width="85" height="64" fill="white" transform="translate(308)"/>
</clipPath>
<clipPath id="clip2">
<rect width="65" height="46" fill="white" transform="translate(426 9)"/>
</clipPath>
</defs>
</svg>
