<?xml version="1.0" encoding="UTF-8" standalone="no"?>
<!-- Created with Inkscape (http://www.inkscape.org/) -->

<svg
   version="1.1"
   id="svg2"
   xml:space="preserve"
   width="1193.9801"
   height="920.74799"
   viewBox="0 0 1193.9801 920.74799"
   xmlns="http://www.w3.org/2000/svg"
   xmlns:svg="http://www.w3.org/2000/svg"><defs
     id="defs6" /><g
     id="g8"
     transform="matrix(1.3333333,0,0,1.3333333,0,2.7685366e-5)"><g
       id="g10"><path
         d="m 716.902,0 c -23.754,0 -43.015,19.258 -43.015,43.016 0,7.437 1.89,14.433 5.211,20.535 -4.282,2.133 -14.25,7.137 -28.219,14.39 C 645.68,67.285 634.77,59.93 622.117,59.93 c -17.687,0 -32.027,14.336 -32.027,32.023 0,5.906 1.629,11.426 4.422,16.176 -7.184,3.961 -14.641,8.121 -22.285,12.445 -4.5,-6.84 -12.231,-11.363 -21.028,-11.363 -13.894,0 -25.156,11.262 -25.156,25.156 0,4.113 1.004,7.985 2.758,11.414 -7.914,4.723 -15.895,9.559 -23.871,14.485 -3.203,-2.707 -7.332,-4.348 -11.86,-4.348 -10.144,0 -18.371,8.227 -18.371,18.371 0,1.633 0.235,3.207 0.633,4.711 -32.168,20.898 -62.937,42.797 -87.855,64.07 -29.063,-64.98 -71.915,-136.312 -131.559,-194.39 -0.055,-0.059 -0.113,-0.114 -0.168,-0.172 -6.98,-6.875 -12.762,-3.844 -4.738,4.722 0.097,0.11 0.203,0.219 0.304,0.332 50.625,54.469 90.391,133.301 117.493,205.184 C 266,346.535 152.664,516.641 276.883,570.094 c 18.086,7.781 26.332,-7.098 18.547,-11.68 -1.399,-0.824 -56.723,-30.726 -21.555,-122.602 h 88.527 c 4.739,0 8.582,-3.847 8.582,-8.585 0,-4.743 -3.843,-8.586 -8.582,-8.586 h -81.187 c 4.75,-10.161 10.543,-20.985 17.519,-32.512 h 63.664 c 4.743,0 8.586,-3.844 8.586,-8.586 0,-4.738 -3.843,-8.586 -8.586,-8.586 H 309.68 c 6.57,-9.832 13.945,-20.125 22.234,-30.906 h 30.484 c 4.743,0 8.586,-3.848 8.586,-8.586 0,-4.742 -3.843,-8.586 -8.586,-8.586 h -16.859 c 9.613,-11.75 20.227,-24.024 31.969,-36.863 0.101,-0.114 0.203,-0.223 0.304,-0.336 23.344,67.605 34.618,125.25 32.145,144.48 -1.344,10.461 -8.098,14.836 -10.812,16.125 -4.348,2.059 -6.129,8.063 0.687,10.07 21.75,6.415 35.141,-15.179 37.551,-32.507 2.426,-17.481 -9.469,-81.465 -40.875,-157.75 26.242,-26.106 56.527,-51.047 87.398,-73.903 2.699,1.563 5.824,2.469 9.164,2.469 10.149,0 18.375,-8.226 18.375,-18.375 0,-1.234 -0.125,-2.441 -0.359,-3.609 8.203,-5.715 16.375,-11.278 24.453,-16.645 4.301,3.426 9.734,5.488 15.66,5.488 13.891,0 25.156,-11.261 25.156,-25.156 0,-2.09 -0.285,-4.105 -0.761,-6.047 8.054,-5 15.875,-9.761 23.386,-14.261 5.832,6.101 14.032,9.918 23.137,9.918 17.684,0 32.024,-14.336 32.024,-32.024 0,-3.113 -0.465,-6.117 -1.297,-8.965 13.672,-7.609 23.64,-12.988 28.508,-15.765 7.742,11.351 20.773,18.804 35.55,18.804 23.754,0 43.016,-19.254 43.016,-43.011 C 759.918,19.258 740.656,0 716.902,0"
         style="fill:#f36814;fill-opacity:1;fill-rule:nonzero;stroke:none"
         id="path12" /><path
         d="m 227.496,344.281 c 1.594,-3.48 2.942,-7.226 4.555,-11.789 1.601,-4.281 3.211,-9.637 4.547,-15.801 l 16.351,-70.726 c 1.336,-7.238 2.395,-12.594 2.684,-15.801 0.523,-2.41 0.523,-5.094 0.523,-8.574 0,-1.07 0,-2.145 0,-3.215 h 36.973 l -22.242,98.316 c -1.61,6.969 -2.664,12.321 -3.211,16.071 -0.809,4.019 -0.809,7.765 -0.809,11.519 h -39.371"
         style="fill:#453d3a;fill-opacity:1;fill-rule:nonzero;stroke:none"
         id="path14" /><path
         d="m 126.715,245.965 c 0.801,-2.41 1.074,-4.828 1.074,-6.43 0,-1.062 -0.273,-1.871 -0.535,-2.68 -1.082,-1.601 -3.746,-2.402 -7.5,-2.402 H 62.949 c -3.738,0 -6.426,0.801 -8.035,2.402 -1.875,1.618 -3.203,4.563 -3.746,9.11 l -6.699,28.926 h 75.543 z m 8.57,98.316 H 25.719 c -10.989,0 -18.477,-2.41 -22.512,-7.5 C 1.082,333.84 0,329.824 0,324.727 c 0,-3.75 0.535,-8.301 1.875,-13.672 L 15.543,251.59 c 2.937,-12.055 7.219,-20.625 13.121,-25.727 6.152,-5.082 14.469,-7.488 25.723,-7.488 h 80.898 c 11.52,0 19.02,2.406 22.766,7.488 2.41,2.957 3.496,6.981 3.496,12.336 0,4.028 -0.543,8.301 -1.883,13.391 l -8.844,39.39 H 40.715 l -5.899,25.711 c -0.531,2.664 -0.793,4.829 -0.793,6.164 0,1.336 0,2.411 0.543,2.934 0.789,1.617 3.204,2.422 6.965,2.422 h 80.352 c 7.777,0 15.008,-0.805 20.906,-2.133 l -7.504,18.203"
         style="fill:#453d3a;fill-opacity:1;fill-rule:nonzero;stroke:none"
         id="path16" /><path
         d="m 162.598,344.281 c 1.699,-3.894 3.125,-8.101 4.832,-13.211 1.711,-4.812 3.414,-10.812 4.828,-17.73 l 28.14,-130.332 c 1.704,-8.113 2.836,-14.125 3.403,-17.723 0.289,-3.308 0.574,-7.808 0.574,-13.219 H 243.59 L 208.637,313.34 c -1.696,7.812 -2.844,13.828 -3.414,18.031 -0.848,4.5 -0.848,8.711 -0.848,12.91 h -41.777"
         style="fill:#453d3a;fill-opacity:1;fill-rule:nonzero;stroke:none"
         id="path18" /><path
         d="m 441.254,344.281 c 1.594,-3.48 2.93,-7.226 4.539,-11.789 1.613,-4.281 3.223,-9.637 4.551,-15.801 l 16.355,-70.726 c 1.336,-7.238 2.399,-12.594 2.664,-15.801 0.543,-2.41 0.543,-5.094 0.543,-8.574 0,-1.07 0,-2.145 0,-3.215 h 36.961 l -22.226,98.316 c -1.606,6.969 -2.68,12.321 -3.207,16.071 -0.813,4.019 -0.813,7.765 -0.813,11.519 h -39.367"
         style="fill:#453d3a;fill-opacity:1;fill-rule:nonzero;stroke:none"
         id="path20" /><path
         d="M 614.594,239.535 C 610.566,239.266 606.559,239 602.004,239 h -17.953 c -3.461,0 -6.414,0.801 -8.024,2.137 -2.144,1.617 -3.488,4.289 -4.554,8.308 l -15.004,67.246 c -2.676,10.446 -3.746,18.485 -3.746,24.645 0,1.078 0,2.137 0,2.945 h -39.114 c 1.598,-4.019 3.207,-7.781 4.278,-11.519 1.074,-3.477 2.418,-8.844 4.293,-16.071 l 16.062,-70.726 c 1.879,-6.965 2.688,-12.32 3.496,-16.34 0.539,-3.762 0.539,-7.496 0.539,-11.25 h 32.942 l -1.336,12.852 c 2.144,-4.274 4.82,-7.489 8.305,-9.637 3.48,-2.145 8.035,-3.215 14.191,-3.215 h 32.156 l 7.758,13.918 c -1.602,1.352 -2.938,2.961 -4.555,5.098 -1.867,2.41 -3.203,3.48 -4.008,3.48 -4.82,-0.527 -9.125,-1.07 -13.136,-1.336"
         style="fill:#453d3a;fill-opacity:1;fill-rule:nonzero;stroke:none"
         id="path22" /><path
         d="m 299.328,174.34 c 0,10.008 -8.113,18.129 -18.129,18.129 -10.015,0 -18.14,-8.121 -18.14,-18.129 0,-10.016 8.125,-18.141 18.14,-18.141 10.016,0 18.129,8.125 18.129,18.141"
         style="fill:#453d3a;fill-opacity:1;fill-rule:nonzero;stroke:none"
         id="path24" /><path
         d="m 375.453,513.922 c -10.172,0 -16.703,5.656 -19.484,16.984 l -6.813,27.469 c -0.578,2.391 -0.859,4.5 -0.859,6.422 0,7.015 3.922,10.562 11.797,10.562 h 39.078 l 2.5,-10.171 h -26.219 c -2.594,0 -3.828,-0.876 -3.828,-2.5 0,-0.391 0.094,-0.86 0.187,-1.344 l 8.344,-33.406 c 0.672,-2.594 2.5,-3.844 5.578,-3.844 h 26.204 l 2.593,-10.172 z"
         style="fill:#3d3a3d;fill-opacity:1;fill-rule:nonzero;stroke:none"
         id="path26" /><path
         d="m 428.348,513.922 -2.594,10.172 h 27.359 l -44.343,51.265 h 60.859 l 2.5,-10.171 h -27.75 l 44.547,-51.266 z"
         style="fill:#3d3a3d;fill-opacity:1;fill-rule:nonzero;stroke:none"
         id="path28" /><path
         d="m 499.969,513.922 -15.36,61.437 h 53.188 l 2.484,-10.171 h -29.75 l 4.125,-16.516 h 27.266 L 544.516,538.5 H 517.25 l 3.547,-14.406 h 29.765 l 2.594,-10.172 z"
         style="fill:#3d3a3d;fill-opacity:1;fill-rule:nonzero;stroke:none"
         id="path30" /><path
         d="m 580.41,513.922 c -10.172,0 -16.703,5.656 -19.484,16.984 l -6.813,27.469 c -0.578,2.391 -0.859,4.5 -0.859,6.422 0,7.015 3.922,10.562 11.797,10.562 h 39.078 l 2.5,-10.171 H 580.41 c -2.594,0 -3.828,-0.876 -3.828,-2.5 0,-0.391 0.094,-0.86 0.188,-1.344 l 8.343,-33.406 c 0.672,-2.594 2.5,-3.844 5.578,-3.844 h 26.204 l 2.593,-10.172 z"
         style="fill:#3d3a3d;fill-opacity:1;fill-rule:nonzero;stroke:none"
         id="path32" /><path
         d="m 673.336,513.922 -6.141,24.578 h -17.468 l 6.14,-24.578 h -23.422 l -15.359,61.437 h 23.422 l 6.625,-26.687 h 17.469 l -6.625,26.687 h 23.421 l 15.36,-61.437 z"
         style="fill:#3d3a3d;fill-opacity:1;fill-rule:nonzero;stroke:none"
         id="path34" /><path
         d="m 422.5,637.469 c 0,-5.563 -4.125,-8.344 -12.484,-8.344 H 361.25 l -15.359,61.437 h 23.421 l 6.626,-26.687 h 7.203 l 4.515,26.687 h 25.625 l -6.234,-26.687 c 6.234,0 10.172,-3.078 11.703,-9.313 l 2.984,-11.812 c 0.469,-2.016 0.766,-3.734 0.766,-5.281 z m -26.016,12.781 c -0.578,2.297 -2.015,3.453 -4.328,3.453 h -13.625 l 3.547,-14.406 h 13.641 c 1.922,0 2.875,0.578 2.875,1.828 0,0.484 -0.094,0.953 -0.282,1.625 z"
         style="fill:#3d3a3d;fill-opacity:1;fill-rule:nonzero;stroke:none"
         id="path36" /><path
         d="m 438.625,629.125 -15.359,61.437 h 53.187 l 2.485,-10.171 h -29.75 l 4.124,-16.516 h 27.266 l 2.594,-10.172 h -27.266 l 3.547,-14.406 h 29.766 l 2.593,-10.172 z"
         style="fill:#3d3a3d;fill-opacity:1;fill-rule:nonzero;stroke:none"
         id="path38" /><path
         d="m 565.254,638.141 c 0,-6.047 -4.047,-9.016 -12.203,-9.016 h -48.188 l -15.359,61.437 h 23.422 l 5.469,-21.89 h 25.437 c 9.609,0 15.563,-4.703 17.953,-14.11 l 2.688,-10.75 c 0.484,-2.203 0.781,-4.031 0.781,-5.671 z m -26.594,15.562 c -0.781,3.156 -2.5,4.797 -5.094,4.797 h -12.671 l 4.796,-19.203 h 12.672 c 2.016,0 2.985,0.765 2.985,2.406 0,0.672 -0.094,1.531 -0.391,2.688 z"
         style="fill:#3d3a3d;fill-opacity:1;fill-rule:nonzero;stroke:none"
         id="path40" /><path
         d="m 636.77,629.125 -11.625,46.266 c -0.485,2.015 -1.25,3.359 -2.11,4.031 -0.953,0.672 -2.5,0.969 -4.609,0.969 h -20.735 c -2.875,0 -4.312,-1.157 -4.312,-3.453 0,-0.672 0.094,-1.344 0.281,-2.126 l 11.422,-45.687 H 581.66 l -10.844,43.203 c -0.671,2.594 -0.968,4.891 -0.968,6.906 0,7.578 4.125,11.328 12.484,11.328 h 33.219 c 5.859,0 10.265,-1.437 13.437,-4.218 3.078,-2.797 5.469,-7.391 7.11,-14.016 l 10.843,-43.203 z"
         style="fill:#3d3a3d;fill-opacity:1;fill-rule:nonzero;stroke:none"
         id="path42" /><path
         d="m 723.172,637.375 c 0,-5.469 -4.422,-8.25 -13.344,-8.25 h -48.484 l -15.36,61.437 h 48.485 c 10.656,0 16.89,-4.031 18.906,-12.187 l 2.687,-11.047 c 0.188,-0.859 0.282,-1.719 0.282,-2.39 0,-2.016 -1.047,-3.563 -3.063,-4.422 -1.437,-0.578 -4.219,-1.157 -8.359,-1.735 v -0.187 c 4.609,-0.282 7.969,-0.953 9.984,-2.016 2.891,-1.437 4.813,-3.844 5.672,-7.297 l 2.016,-7.969 c 0.375,-1.437 0.578,-2.781 0.578,-3.937 z m -26.219,12.875 c -0.562,2.297 -2.015,3.453 -4.219,3.453 h -14.109 l 3.547,-14.406 h 14.109 c 1.828,0 2.797,0.578 2.797,1.828 0,0.375 -0.109,0.859 -0.203,1.437 z m -6.719,26.781 c -0.578,2.203 -2.015,3.36 -4.218,3.36 h -14.11 l 4.125,-16.516 h 14.11 c 1.828,0 2.781,0.578 2.781,1.828 0,0.375 -0.094,0.859 -0.188,1.531 z"
         style="fill:#3d3a3d;fill-opacity:1;fill-rule:nonzero;stroke:none"
         id="path44" /><path
         d="m 749.664,680.391 12.859,-51.266 h -23.421 l -15.36,61.437 h 53.188 l 2.484,-10.171 z"
         style="fill:#3d3a3d;fill-opacity:1;fill-rule:nonzero;stroke:none"
         id="path46" /><path
         d="m 804.383,629.125 -15.36,61.437 h 23.422 l 15.36,-61.437 z"
         style="fill:#3d3a3d;fill-opacity:1;fill-rule:nonzero;stroke:none"
         id="path48" /><path
         d="m 856.406,629.125 c -10.172,0 -16.703,5.656 -19.484,16.984 l -6.813,27.469 c -0.578,2.391 -0.859,4.5 -0.859,6.422 0,7.016 3.922,10.562 11.797,10.562 h 39.078 l 2.5,-10.171 h -26.219 c -2.594,0 -3.828,-0.875 -3.828,-2.5 0,-0.391 0.094,-0.86 0.188,-1.344 l 8.343,-33.406 c 0.672,-2.594 2.5,-3.844 5.579,-3.844 h 26.203 l 2.593,-10.172 z"
         style="fill:#3d3a3d;fill-opacity:1;fill-rule:nonzero;stroke:none"
         id="path50" /></g></g></svg>
