<svg width="871" height="176" viewBox="0 0 871 176" fill="none" xmlns="http://www.w3.org/2000/svg">
<path d="M240.999 99.9619H223.494V139H201.521V32.3594H241.146C253.743 32.3594 263.46 35.167 270.296 40.7822C277.132 46.3975 280.55 54.332 280.55 64.5859C280.55 71.8613 278.963 77.9404 275.789 82.8232C272.664 87.6572 267.903 91.5146 261.507 94.3955L284.578 137.975V139H260.994L240.999 99.9619ZM223.494 82.1641H241.219C246.736 82.1641 251.009 80.7725 254.036 77.9893C257.063 75.1572 258.577 71.2754 258.577 66.3438C258.577 61.3145 257.137 57.3594 254.256 54.4785C251.424 51.5977 247.054 50.1572 241.146 50.1572H223.494V82.1641ZM332.405 140.465C320.784 140.465 311.312 136.9 303.987 129.771C296.712 122.643 293.074 113.146 293.074 101.28V99.2295C293.074 91.2705 294.612 84.166 297.688 77.916C300.765 71.6172 305.11 66.7832 310.726 63.4141C316.39 59.9961 322.835 58.2871 330.062 58.2871C340.901 58.2871 349.422 61.7051 355.623 68.541C361.873 75.377 364.998 85.0693 364.998 97.6182V106.261H314.534C315.218 111.437 317.269 115.587 320.687 118.712C324.153 121.837 328.523 123.399 333.797 123.399C341.951 123.399 348.323 120.445 352.913 114.537L363.313 126.183C360.14 130.675 355.843 134.19 350.423 136.729C345.003 139.22 338.997 140.465 332.405 140.465ZM329.988 75.4258C325.789 75.4258 322.371 76.8418 319.734 79.6738C317.146 82.5059 315.486 86.5586 314.754 91.832H344.197V90.1475C344.1 85.46 342.83 81.8467 340.389 79.3076C337.947 76.7197 334.48 75.4258 329.988 75.4258ZM373.787 98.6436C373.787 86.1924 376.546 76.3535 382.063 69.127C387.63 61.9004 395.247 58.2871 404.915 58.2871C413.411 58.2871 420.174 61.5342 425.203 68.0283L426.595 59.752H445.198V169.469H423.958V132.188C419.075 137.706 412.679 140.465 404.769 140.465C395.345 140.465 387.825 136.803 382.21 129.479C376.595 122.154 373.787 111.876 373.787 98.6436ZM394.954 100.182C394.954 107.75 396.272 113.512 398.909 117.467C401.595 121.422 405.354 123.399 410.188 123.399C416.683 123.399 421.272 120.812 423.958 115.636V82.8965C421.321 77.916 416.78 75.4258 410.335 75.4258C405.452 75.4258 401.668 77.4033 398.982 81.3584C396.297 85.3135 394.954 91.5879 394.954 100.182ZM509.358 130.943C504.134 137.291 496.907 140.465 487.679 140.465C479.183 140.465 472.688 138.023 468.196 133.141C463.753 128.258 461.482 121.104 461.385 111.681V59.752H482.552V110.948C482.552 119.2 486.312 123.326 493.831 123.326C501.009 123.326 505.94 120.836 508.626 115.855V59.752H529.866V139H509.944L509.358 130.943ZM582.308 140.465C570.687 140.465 561.214 136.9 553.89 129.771C546.614 122.643 542.977 113.146 542.977 101.28V99.2295C542.977 91.2705 544.515 84.166 547.591 77.916C550.667 71.6172 555.013 66.7832 560.628 63.4141C566.292 59.9961 572.737 58.2871 579.964 58.2871C590.804 58.2871 599.324 61.7051 605.525 68.541C611.775 75.377 614.9 85.0693 614.9 97.6182V106.261H564.437C565.12 111.437 567.171 115.587 570.589 118.712C574.056 121.837 578.426 123.399 583.699 123.399C591.854 123.399 598.226 120.445 602.815 114.537L613.216 126.183C610.042 130.675 605.745 134.19 600.325 136.729C594.905 139.22 588.899 140.465 582.308 140.465ZM579.891 75.4258C575.691 75.4258 572.273 76.8418 569.637 79.6738C567.049 82.5059 565.389 86.5586 564.656 91.832H594.1V90.1475C594.002 85.46 592.732 81.8467 590.291 79.3076C587.85 76.7197 584.383 75.4258 579.891 75.4258ZM669.905 117.101C669.905 114.513 668.611 112.486 666.023 111.021C663.484 109.508 659.383 108.165 653.719 106.993C634.871 103.038 625.447 95.0303 625.447 82.9697C625.447 75.9385 628.353 70.0791 634.163 65.3916C640.022 60.6553 647.664 58.2871 657.088 58.2871C667.146 58.2871 675.179 60.6553 681.185 65.3916C687.239 70.1279 690.267 76.2803 690.267 83.8486H669.1C669.1 80.8213 668.123 78.3311 666.17 76.3779C664.217 74.376 661.165 73.375 657.015 73.375C653.45 73.375 650.691 74.1807 648.738 75.792C646.785 77.4033 645.809 79.4541 645.809 81.9443C645.809 84.2881 646.907 86.1924 649.104 87.6572C651.351 89.0732 655.11 90.3184 660.384 91.3926C665.657 92.418 670.101 93.5898 673.714 94.9082C684.896 99.0098 690.486 106.114 690.486 116.222C690.486 123.448 687.386 129.308 681.185 133.8C674.983 138.243 666.976 140.465 657.161 140.465C650.521 140.465 644.612 139.293 639.437 136.949C634.31 134.557 630.281 131.31 627.352 127.208C624.422 123.058 622.957 118.59 622.957 113.805H643.025C643.221 117.564 644.612 120.445 647.2 122.447C649.788 124.449 653.255 125.45 657.601 125.45C661.653 125.45 664.705 124.693 666.756 123.18C668.855 121.617 669.905 119.591 669.905 117.101ZM729.524 40.2695V59.752H743.074V75.2793H729.524V114.83C729.524 117.76 730.086 119.859 731.209 121.129C732.332 122.398 734.48 123.033 737.654 123.033C739.998 123.033 742.073 122.862 743.88 122.521V138.561C739.729 139.83 735.457 140.465 731.062 140.465C716.219 140.465 708.65 132.97 708.357 117.979V75.2793H696.785V59.752H708.357V40.2695H729.524ZM864.437 139H791.341V124.498L825.838 87.7305C830.574 82.5547 834.065 78.0381 836.312 74.1807C838.606 70.3232 839.754 66.6611 839.754 63.1943C839.754 58.458 838.558 54.7471 836.165 52.0615C833.772 49.3271 830.354 47.96 825.911 47.96C821.126 47.96 817.342 49.6201 814.559 52.9404C811.824 56.2119 810.457 60.5332 810.457 65.9043H789.217C789.217 59.4102 790.755 53.4775 793.831 48.1064C796.956 42.7354 801.351 38.5361 807.015 35.5088C812.679 32.4326 819.1 30.8945 826.277 30.8945C837.264 30.8945 845.784 33.5312 851.839 38.8047C857.942 44.0781 860.994 51.5244 860.994 61.1436C860.994 66.417 859.627 71.7881 856.893 77.2568C854.158 82.7256 849.471 89.0977 842.83 96.373L818.587 121.935H864.437V139Z" fill="black"/>
<rect y="14" width="148" height="148" rx="31" fill="#E0E7FF"/>
<circle cx="32.56" cy="46.56" r="16.28" fill="#C7D2FE"/>
<circle cx="32.56" cy="88" r="16.28" fill="#C7D2FE"/>
<circle cx="74" cy="46.56" r="16.28" fill="#C7D2FE"/>
<circle cx="32.56" cy="129.44" r="16.28" fill="#4338CA"/>
<circle cx="74" cy="88" r="16.28" fill="#C7D2FE"/>
<circle cx="115.44" cy="88" r="16.28" fill="#C7D2FE"/>
<circle cx="74" cy="129.44" r="16.28" fill="#C7D2FE"/>
<circle cx="115.44" cy="46.56" r="16.28" fill="#4338CA"/>
<circle cx="115.44" cy="129.44" r="16.28" fill="#C7D2FE"/>
</svg>
